<svg xmlns="http://www.w3.org/2000/svg" viewBox="0 0 64 64" fill="none">
  <rect width="64" height="64" rx="12" fill="#1C3557"/>
  <path d="M32 4 L60 16 L60 38 C60 52 32 60 32 60 C32 60 4 52 4 38 L4 16 Z" fill="#1C3557"/>
  <path d="M32 10 L54 20 L54 37 C54 48 32 55 32 55 C32 55 10 48 10 37 L10 20 Z" fill="none" stroke="#C4A862" stroke-width="1.5"/>
  <path d="M18 36 C18 29 24 25 32 25 C40 25 46 29 46 36 L44 36 C42 31 38 28 32 28 C26 28 22 31 20 36 Z" fill="#C4A862"/>
  <path d="M20 36 L20 41 C20 43 21 44 22 44 L26 44 C26 44 28 41 32 41 C36 41 38 44 38 44 L42 44 C43 44 44 43 44 41 L44 36 Z" fill="#C4A862"/>
  <circle cx="24" cy="36" r="3.5" fill="#1C3557"/>
  <circle cx="40" cy="36" r="3.5" fill="#1C3557"/>
</svg>
